<?xml version="1.0" standalone="no"?>
<!DOCTYPE svg PUBLIC "-//W3C//DTD SVG 20010904//EN"
 "http://www.w3.org/TR/2001/REC-SVG-20010904/DTD/svg10.dtd">
<svg version="1.0" xmlns="http://www.w3.org/2000/svg"
 width="1600.000000pt" height="1588.000000pt" viewBox="0 0 1600.000000 1588.000000"
 preserveAspectRatio="xMidYMid meet">

<g transform="translate(0.000000,1588.000000) scale(0.100000,-0.100000)"
fill="#000000" stroke="none">
<path d="M7914 13043 c-44 -31 -101 -73 -129 -93 -27 -20 -93 -67 -145 -105
-52 -38 -129 -94 -170 -124 -77 -56 -106 -77 -270 -196 -95 -69 -140 -102
-312 -228 -131 -96 -203 -148 -533 -387 -60 -43 -137 -99 -170 -123 -33 -24
-91 -67 -130 -95 -159 -116 -183 -133 -250 -181 -38 -28 -110 -80 -160 -116
-49 -36 -115 -84 -145 -105 -30 -21 -145 -105 -255 -185 -110 -80 -236 -172
-279 -203 -73 -53 -124 -89 -251 -182 -27 -20 -84 -61 -125 -91 -41 -30 -118
-86 -170 -124 -52 -37 -111 -80 -130 -95 -19 -14 -100 -73 -180 -130 -80 -58
-163 -118 -186 -135 -22 -16 -78 -57 -123 -90 -112 -80 -192 -138 -276 -200
-72 -54 -133 -97 -275 -200 -231 -166 -439 -318 -470 -344 -33 -27 -34 -30
-23 -62 11 -32 101 -310 353 -1089 62 -190 127 -390 145 -445 34 -103 57 -173
245 -755 61 -190 133 -410 160 -490 26 -80 87 -266 135 -415 47 -148 93 -288
100 -310 8 -22 68 -206 134 -410 66 -203 176 -545 246 -760 69 -214 134 -415
145 -445 10 -30 71 -217 135 -415 64 -198 135 -415 157 -483 l39 -122 3249 0
3248 0 36 108 c19 59 89 276 156 482 67 206 130 400 140 430 11 30 74 224 140
430 148 458 200 617 284 875 64 196 117 362 238 740 34 105 76 233 94 285 18
52 85 257 149 455 185 570 355 1095 376 1155 92 270 389 1205 386 1215 -3 6
-63 53 -134 105 -70 51 -156 114 -190 139 -34 25 -96 71 -138 101 -121 87
-230 166 -365 265 -69 50 -168 122 -220 160 -52 38 -117 85 -145 105 -27 20
-102 74 -165 120 -63 46 -137 100 -165 120 -27 20 -78 56 -111 81 -162 117
-245 177 -309 224 -105 77 -223 163 -311 227 -44 31 -160 115 -259 187 -99 72
-234 170 -300 218 -127 91 -174 126 -295 214 -41 30 -118 86 -170 124 -52 38
-117 85 -145 105 -71 52 -352 256 -538 391 -87 63 -182 132 -212 154 -30 22
-78 57 -107 78 -29 21 -96 70 -148 108 -52 39 -111 82 -130 95 -37 25 -82 58
-331 239 -259 189 -352 255 -359 255 -4 0 -43 -25 -86 -57z m-44 -2946 l0
-2423 -67 -29 c-123 -52 -232 -185 -262 -316 -13 -56 -13 -172 0 -228 49 -215
266 -373 489 -357 179 13 319 109 398 274 31 65 36 86 40 171 7 147 -24 240
-115 341 -52 58 -127 110 -185 129 l-38 13 0 2424 c0 1333 2 2424 5 2424 4 0
181 -128 450 -325 39 -28 116 -85 173 -125 l102 -74 0 -479 0 -478 -52 -24
c-245 -111 -353 -367 -259 -615 44 -118 170 -234 296 -275 91 -30 220 -26 309
9 126 48 208 127 270 256 29 61 30 72 31 186 l0 120 -42 85 c-52 105 -120 173
-221 220 l-72 34 0 389 c0 423 -4 397 49 348 7 -7 39 -30 70 -52 31 -22 86
-61 122 -87 289 -210 512 -372 554 -403 137 -101 269 -197 582 -425 l343 -248
-1 -2656 0 -2656 -292 -266 -292 -267 -26 19 c-81 57 -249 85 -360 59 -239
-55 -402 -301 -360 -540 66 -370 509 -522 785 -269 132 121 186 301 141 469
l-14 55 52 50 c29 28 181 168 339 313 l288 263 0 2611 c0 1436 2 2613 4 2615
4 4 211 -143 461 -327 50 -36 114 -83 143 -104 l52 -38 0 -1966 0 -1966 -61
-190 c-34 -105 -83 -256 -109 -336 -45 -136 -92 -281 -402 -1235 -66 -203
-144 -442 -172 -530 l-53 -160 -921 -3 -922 -2 -1 1147 c0 632 0 1173 -1 1203
-4 588 4 2530 12 2530 5 0 35 12 66 26 107 49 202 159 245 285 18 54 21 79 16
162 -4 85 -10 107 -41 173 -49 104 -126 182 -224 230 -69 33 -87 37 -179 42
-129 6 -212 -17 -301 -82 -290 -214 -251 -651 73 -811 l75 -37 0 -965 0 -965
-107 -116 c-58 -65 -147 -160 -197 -212 -50 -53 -181 -192 -291 -310 -109
-118 -231 -249 -271 -290 -88 -93 -637 -681 -685 -734 l-35 -38 -40 20 c-121
62 -280 69 -405 18 -170 -69 -289 -248 -289 -435 0 -231 148 -414 377 -467
122 -28 276 7 381 86 153 116 225 343 165 522 l-19 57 110 118 c61 65 157 168
213 228 l103 110 0 -748 0 -747 -1351 2 -1350 3 -2 2898 -2 2898 30 28 c17 16
56 48 88 72 72 54 90 68 254 198 72 57 133 104 136 105 3 0 34 -20 69 -45 77
-56 128 -76 223 -90 133 -18 275 26 375 118 173 160 207 402 84 600 -53 85
-117 141 -214 187 -61 29 -72 31 -185 31 -118 0 -121 -1 -198 -37 -179 -85
-286 -263 -275 -455 l3 -70 -60 -46 c-33 -25 -141 -109 -240 -187 -99 -77
-213 -166 -254 -198 -41 -31 -80 -63 -87 -70 -12 -11 -14 -294 -14 -1685 0
-920 0 -2156 -1 -2747 l-1 -1075 -103 315 c-57 173 -158 484 -225 690 -66 206
-132 407 -145 445 -13 39 -60 183 -104 320 l-81 250 0 1132 0 1132 74 35 c97
47 174 124 223 224 35 70 38 83 41 181 3 89 0 117 -18 170 -76 227 -310 365
-536 318 -161 -34 -284 -135 -356 -292 -20 -43 -23 -66 -23 -170 0 -101 4
-129 23 -175 28 -70 92 -156 147 -198 47 -36 133 -82 153 -82 9 0 12 -153 11
-732 -1 -727 -1 -733 -19 -678 -10 30 -61 186 -113 345 -52 160 -120 367 -150
460 -31 94 -132 406 -226 695 -94 289 -191 585 -216 659 -48 144 -52 166 -32
174 6 3 71 48 142 100 72 53 168 124 215 158 347 252 474 343 610 441 85 62
196 142 245 178 127 94 482 352 508 370 27 18 149 106 242 175 39 29 277 202
530 385 253 184 617 448 808 587 191 139 350 253 352 253 3 0 5 -1162 5 -2583
l0 -2583 -65 -28 c-204 -89 -317 -329 -260 -551 60 -231 293 -383 528 -345
260 41 433 276 396 538 -23 161 -152 321 -301 373 l-38 13 0 2681 0 2681 358
261 c196 143 360 261 365 262 4 1 7 -1089 7 -2422z m1184 681 c56 -17 121 -84
136 -140 50 -183 -143 -339 -303 -245 -67 40 -100 94 -105 172 -5 73 11 115
62 164 57 55 131 72 210 49z m-2934 -553 c67 -34 103 -88 108 -165 10 -136
-73 -230 -202 -230 -69 0 -95 10 -145 55 -179 162 23 450 239 340z m6015 -608
c111 -82 192 -140 271 -198 34 -24 101 -73 150 -108 168 -122 234 -172 234
-180 0 -4 -13 -48 -29 -97 -16 -49 -89 -271 -161 -494 -352 -1085 -357 -1100
-529 -1625 l-50 -150 0 1469 c-1 1173 2 1466 12 1458 6 -5 53 -39 102 -75z
m-3068 -588 c40 -15 92 -67 114 -114 62 -134 -42 -295 -191 -295 -59 0 -117
28 -158 75 -42 47 -53 77 -53 142 0 113 92 203 208 203 28 0 64 -5 80 -11z
m-4889 -149 c27 -7 57 -25 81 -50 105 -108 68 -286 -71 -344 -133 -56 -287 49
-288 195 0 55 38 136 79 166 32 24 118 53 141 48 8 -2 34 -9 58 -15z m3882
-1460 c49 -13 109 -66 131 -114 65 -143 -35 -298 -192 -298 -194 0 -283 241
-136 367 60 51 123 66 197 45z m-979 -1045 c87 -31 139 -107 139 -203 0 -51
-5 -67 -32 -108 -49 -72 -96 -95 -185 -92 -61 3 -78 8 -115 33 -112 78 -119
248 -13 332 66 52 131 64 206 38z m1777 -1602 l-3 -1268 -362 -3 -363 -2 0
886 0 886 78 83 c205 221 338 363 466 498 77 81 146 157 153 167 8 11 18 20
24 20 6 0 8 -475 7 -1267z m-1776 -235 c50 -15 125 -95 134 -144 36 -193 -146
-330 -312 -234 -87 49 -128 164 -91 253 46 109 155 159 269 125z m2984 -17
c87 -40 137 -144 114 -239 -42 -175 -273 -220 -375 -74 -27 40 -30 51 -30 122
0 71 3 82 30 120 59 83 169 113 261 71z"/>
<path d="M9855 10161 c-184 -53 -319 -204 -348 -390 -18 -121 14 -240 95 -352
46 -64 93 -102 172 -141 l68 -33 -1 -1380 c0 -759 -1 -1464 -1 -1567 0 -151
-3 -188 -13 -188 -37 0 -140 -65 -193 -123 -194 -209 -170 -524 52 -696 81
-62 156 -91 254 -98 177 -13 338 67 432 211 155 240 70 554 -184 681 l-73 36
-5 292 c-3 161 -4 864 -2 1562 l3 1270 69 33 c82 38 172 122 212 198 149 278
1 608 -308 689 -75 19 -153 18 -229 -4z m222 -272 c74 -36 125 -140 108 -221
-34 -162 -225 -230 -345 -122 -50 46 -70 90 -70 158 0 163 157 257 307 185z
m-15 -4033 c80 -34 137 -135 124 -219 -29 -181 -238 -248 -363 -116 -41 43
-53 77 -53 145 0 83 47 159 118 190 38 17 133 17 174 0z"/>
<path d="M5873 8891 c-167 -61 -277 -176 -313 -330 -46 -194 69 -411 259 -487
l71 -29 0 -1172 0 -1172 -72 -35 c-240 -115 -336 -400 -217 -642 13 -27 52
-77 85 -111 183 -187 478 -192 666 -10 148 143 186 359 97 547 -39 83 -133
175 -224 220 l-70 35 -1 1095 c0 602 1 1129 4 1172 l4 76 56 21 c190 73 307
276 273 471 -29 162 -139 286 -306 345 -90 32 -232 34 -312 6z m253 -249 c69
-35 104 -93 104 -172 0 -77 -35 -137 -100 -170 -133 -67 -292 4 -315 141 -14
83 45 183 128 213 53 20 131 14 183 -12z m-6 -3214 c30 -15 57 -40 78 -73 32
-47 34 -54 30 -121 -4 -92 -36 -142 -115 -180 -45 -22 -63 -26 -108 -21 -136
14 -223 147 -181 275 17 51 67 108 114 128 46 21 132 17 182 -8z"/>
</g>
</svg>
