<?xml version="1.0" standalone="no"?>
<!DOCTYPE svg PUBLIC "-//W3C//DTD SVG 20010904//EN"
 "http://www.w3.org/TR/2001/REC-SVG-20010904/DTD/svg10.dtd">
<svg version="1.0" xmlns="http://www.w3.org/2000/svg"
 width="313.000000pt" height="313.000000pt" viewBox="0 0 313.000000 313.000000"
 preserveAspectRatio="xMidYMid meet">

<g transform="translate(0.000000,313.000000) scale(0.100000,-0.100000)"
fill="#000000" stroke="none">
<path d="M1555 2833 c-208 -25 -338 -77 -476 -189 -152 -124 -282 -335 -374
-609 -50 -146 -59 -286 -27 -392 41 -131 154 -284 271 -363 75 -52 62 -66 -16
-18 -45 29 -80 61 -110 103 -99 136 -131 165 -186 165 -42 0 -105 -36 -123
-72 -21 -41 -15 -117 16 -183 30 -63 157 -191 229 -229 61 -33 140 -56 192
-56 l37 0 16 -67 c33 -128 119 -270 212 -346 19 -16 34 -36 34 -46 0 -25 51
-102 91 -135 98 -83 264 -121 403 -93 44 9 104 29 134 44 63 32 147 120 157
163 4 18 29 51 62 82 49 47 153 188 153 208 0 4 7 25 16 46 21 51 31 33 44
-87 13 -119 23 -149 61 -185 27 -25 38 -29 90 -29 57 0 63 2 94 36 83 91 64
300 -44 466 -44 69 -95 114 -168 149 -29 13 -53 28 -53 32 0 4 28 28 61 52
116 84 220 222 257 340 26 85 23 263 -6 360 -127 412 -283 645 -511 760 -147
73 -374 113 -536 93z m271 -48 c192 -34 297 -87 429 -220 138 -138 222 -297
300 -568 55 -186 47 -320 -24 -454 -103 -193 -306 -334 -590 -411 -87 -23
-114 -26 -286 -26 -175 0 -198 2 -292 26 -405 108 -664 364 -665 657 0 101 15
164 83 341 154 398 406 623 744 663 78 10 221 6 301 -8z m-1134 -1318 c30 -24
138 -172 138 -188 0 -26 -44 -92 -73 -109 -52 -32 -80 -26 -126 28 -59 67 -91
136 -91 193 0 40 4 51 31 73 38 33 84 34 121 3z m236 -244 c31 -21 58 -38 60
-39 2 -1 0 -37 -4 -79 l-7 -77 -56 5 c-34 4 -83 20 -130 43 -80 40 -80 38 -12
76 18 10 40 36 53 62 12 26 26 46 30 46 5 0 34 -17 66 -37z m266 -78 c263
-104 582 -113 848 -25 48 16 115 43 149 60 33 17 64 28 68 25 3 -4 6 -52 6
-108 l0 -102 -70 -6 c-38 -3 -82 -11 -96 -17 -46 -19 -95 -70 -140 -145 -63
-108 -84 -131 -141 -162 -44 -24 -68 -30 -139 -33 -163 -8 -233 31 -333 185
-78 120 -159 173 -266 173 l-49 0 -7 45 c-6 42 1 141 13 172 4 11 14 8 47 -10
22 -13 72 -37 110 -52z m1225 -47 c31 -30 101 -129 101 -143 0 -3 -11 -3 -25
1 -37 9 -88 -3 -131 -32 -36 -25 -38 -25 -52 -7 -9 12 -12 32 -8 62 3 24 6 77
6 118 l0 73 38 -19 c20 -11 52 -34 71 -53z m-1288 -143 c94 -24 125 -49 195
-156 106 -162 160 -194 324 -194 88 0 113 4 155 23 66 30 118 82 167 167 52
89 83 123 133 145 49 22 141 35 149 22 3 -6 -3 -39 -14 -74 -59 -190 -239
-361 -438 -414 -73 -19 -229 -19 -307 1 -143 36 -285 137 -363 257 -48 73 -92
176 -92 213 0 30 12 31 91 10z m1398 -44 c18 -18 41 -117 41 -177 0 -88 -45
-154 -105 -154 -77 0 -99 35 -116 185 -8 77 -8 100 3 112 42 52 140 71 177 34z
m-1177 -426 c153 -85 415 -87 581 -4 31 16 57 26 57 21 0 -24 -78 -94 -133
-121 -126 -62 -277 -64 -404 -7 -56 26 -124 82 -144 119 -13 22 -10 22 43 -8z"/>
<path d="M1905 2517 c-14 -28 -36 -49 -75 -70 -47 -27 -66 -32 -145 -35 -74
-3 -100 0 -147 18 -58 21 -118 76 -118 107 0 44 -190 -38 -276 -119 -210 -198
-350 -605 -275 -800 65 -168 238 -298 489 -366 88 -23 114 -26 287 -26 230 -1
307 15 483 100 183 89 293 212 321 360 22 112 -34 345 -127 529 -95 190 -193
283 -347 327 l-50 15 -20 -40z m-568 -528 c60 -16 132 -81 113 -104 -11 -13
-17 -11 -48 15 -20 17 -42 30 -48 30 -6 0 -25 7 -42 16 -18 9 -49 14 -73 12
-48 -3 -65 16 -27 31 32 13 71 13 125 0z m757 -5 c9 -3 16 -12 16 -20 0 -10
-15 -14 -52 -15 -29 -1 -56 -1 -60 0 -4 0 -5 -5 -2 -12 3 -8 -3 -13 -15 -13
-11 0 -17 4 -14 9 7 12 -35 -10 -73 -39 -26 -19 -34 -21 -43 -10 -13 16 38 68
89 90 35 15 125 21 154 10z m-421 -184 c79 0 88 -10 60 -67 -25 -52 -81 -80
-120 -61 -52 25 -94 117 -60 132 6 3 21 3 32 1 11 -3 51 -5 88 -5z"/>
<path d="M1575 916 c-47 -18 -85 -58 -85 -90 0 -12 10 -33 21 -45 96 -102 351
-34 289 77 -33 58 -145 87 -225 58z m181 -57 c47 -47 -7 -94 -108 -92 -95 2
-149 53 -100 95 27 24 43 28 115 25 57 -2 71 -7 93 -28z"/>
</g>
</svg>
